<mxfile host="app.diagrams.net" modified="2024-05-21T01:09:14.311Z" agent="Mozilla/5.0 (Windows NT 10.0; Win64; x64) AppleWebKit/537.36 (KHTML, like Gecko) Chrome/124.0.0.0 Safari/537.36" etag="8mSquKzHvRy8kHouuhuV" version="24.4.3" type="github">
  <diagram name="第 1 页" id="v4AXpWiuOrGz0rRwwfPZ">
    <mxGraphModel dx="1405" dy="842" grid="1" gridSize="10" guides="1" tooltips="1" connect="1" arrows="1" fold="1" page="1" pageScale="1" pageWidth="827" pageHeight="1169" math="0" shadow="0">
      <root>
        <mxCell id="0" />
        <mxCell id="1" parent="0" />
        <mxCell id="eMd8XQyA-R0VeCl5bcIJ-4" value="" style="endArrow=classic;html=1;rounded=0;entryX=0.5;entryY=0;entryDx=0;entryDy=0;exitX=0.5;exitY=1;exitDx=0;exitDy=0;" edge="1" parent="1" source="eMd8XQyA-R0VeCl5bcIJ-13" target="eMd8XQyA-R0VeCl5bcIJ-8">
          <mxGeometry width="50" height="50" relative="1" as="geometry">
            <mxPoint x="160" y="240" as="sourcePoint" />
            <mxPoint x="160" y="320" as="targetPoint" />
          </mxGeometry>
        </mxCell>
        <mxCell id="eMd8XQyA-R0VeCl5bcIJ-8" value="&lt;p style=&quot;margin:0px;margin-top:6px;text-align:center;&quot;&gt;&lt;b&gt;Root Component&lt;/b&gt;&lt;/p&gt;&lt;hr size=&quot;1&quot; style=&quot;border-style:solid;&quot;&gt;&lt;p style=&quot;margin:0px;margin-left:8px;&quot;&gt;import context from context.js&lt;br&gt;&lt;/p&gt;&lt;p style=&quot;margin:0px;margin-left:8px;&quot;&gt;import componentA from componentA&lt;/p&gt;&lt;p style=&quot;margin:0px;margin-left:8px;&quot;&gt;&lt;br&gt;&lt;/p&gt;&lt;p style=&quot;margin:0px;margin-left:8px;&quot;&gt;&amp;lt;context.provider value={variable}&amp;gt;&amp;lt;/context.provider&amp;gt;&lt;/p&gt;" style="align=left;overflow=fill;html=1;dropTarget=0;whiteSpace=wrap;fillStyle=solid;fillColor=#D5E8D4;" vertex="1" parent="1">
          <mxGeometry x="35" y="395" width="725" height="190" as="geometry" />
        </mxCell>
        <mxCell id="eMd8XQyA-R0VeCl5bcIJ-9" value="" style="shape=component;jettyWidth=8;jettyHeight=4;" vertex="1" parent="eMd8XQyA-R0VeCl5bcIJ-8">
          <mxGeometry x="1" width="20" height="20" relative="1" as="geometry">
            <mxPoint x="-24" y="4" as="offset" />
          </mxGeometry>
        </mxCell>
        <mxCell id="eMd8XQyA-R0VeCl5bcIJ-10" value="" style="endArrow=classic;html=1;rounded=0;entryX=0.5;entryY=1;entryDx=0;entryDy=0;" edge="1" parent="1" source="eMd8XQyA-R0VeCl5bcIJ-11" target="eMd8XQyA-R0VeCl5bcIJ-8">
          <mxGeometry width="50" height="50" relative="1" as="geometry">
            <mxPoint x="160" y="570" as="sourcePoint" />
            <mxPoint x="440" y="340" as="targetPoint" />
          </mxGeometry>
        </mxCell>
        <mxCell id="eMd8XQyA-R0VeCl5bcIJ-11" value="&lt;p style=&quot;margin:0px;margin-top:6px;text-align:center;&quot;&gt;&lt;b&gt;Component A&lt;/b&gt;&lt;/p&gt;&lt;hr size=&quot;1&quot; style=&quot;border-style:solid;&quot;&gt;&lt;p style=&quot;margin:0px;margin-left:8px;&quot;&gt;import context from context.js&lt;br&gt;&lt;/p&gt;&lt;p style=&quot;margin:0px;margin-left:8px;&quot;&gt;import componentA from componentA&lt;/p&gt;&lt;p style=&quot;margin:0px;margin-left:8px;&quot;&gt;&lt;br&gt;&lt;/p&gt;&lt;p style=&quot;margin:0px;margin-left:8px;&quot;&gt;&amp;lt;context.provider value={variable}&amp;gt;&amp;lt;/context.provider&amp;gt;&lt;/p&gt;" style="align=left;overflow=fill;html=1;dropTarget=0;whiteSpace=wrap;fillStyle=solid;fillColor=#D4E1F5;" vertex="1" parent="1">
          <mxGeometry x="35" y="730" width="725" height="190" as="geometry" />
        </mxCell>
        <mxCell id="eMd8XQyA-R0VeCl5bcIJ-12" value="" style="shape=component;jettyWidth=8;jettyHeight=4;" vertex="1" parent="eMd8XQyA-R0VeCl5bcIJ-11">
          <mxGeometry x="1" width="20" height="20" relative="1" as="geometry">
            <mxPoint x="-24" y="4" as="offset" />
          </mxGeometry>
        </mxCell>
        <mxCell id="eMd8XQyA-R0VeCl5bcIJ-13" value="&lt;p style=&quot;margin: 6px 0px 0px; text-align: center;&quot;&gt;&lt;b style=&quot;&quot;&gt;&lt;font style=&quot;font-size: 12px;&quot;&gt;Context&lt;/font&gt;&lt;/b&gt;&lt;/p&gt;&lt;hr size=&quot;1&quot; style=&quot;border-style: solid;&quot;&gt;&lt;pre style=&quot;box-sizing: border-box;&quot;&gt;&lt;code style=&quot;box-sizing: border-box;&quot; class=&quot;language-javascript&quot;&gt;&lt;font style=&quot;font-size: 12px;&quot;&gt;import { createContext } from &quot;react&quot;;&lt;br&gt;&lt;br&gt;const Context = createContext();&lt;br&gt;&lt;br&gt;export default Context;&lt;/font&gt;&lt;/code&gt;&lt;/pre&gt;" style="align=left;overflow=fill;html=1;dropTarget=0;whiteSpace=wrap;fillStyle=solid;fillColor=#FFF2CC;" vertex="1" parent="1">
          <mxGeometry x="35" y="50" width="725" height="190" as="geometry" />
        </mxCell>
        <mxCell id="eMd8XQyA-R0VeCl5bcIJ-14" value="" style="shape=component;jettyWidth=8;jettyHeight=4;" vertex="1" parent="eMd8XQyA-R0VeCl5bcIJ-13">
          <mxGeometry x="1" width="20" height="20" relative="1" as="geometry">
            <mxPoint x="-24" y="4" as="offset" />
          </mxGeometry>
        </mxCell>
      </root>
    </mxGraphModel>
  </diagram>
</mxfile>
